<svg width="511" height="511" viewBox="0 0 511 511" fill="white" xmlns="http://www.w3.org/2000/svg">
<path d="M64.5315 0C66.1864 1.34842 67.3018 2.7677 68.5691 4.03519C211.225 146.715 353.896 289.38 496.548 432.063C503.759 439.275 509.321 447.496 511.628 457.88C512 463.688 512 469.376 511.624 475.656C507.613 491.798 499.187 503.332 483.791 509.036C481.186 510.001 478.597 511.011 476 512C469.979 512 463.958 512 457.468 512C451.24 509.093 444.738 507.082 439.891 503.071C432.343 496.824 425.836 489.297 419.051 482.158C415.45 478.368 412.274 474.176 408.764 470.295C398.489 458.935 388.09 447.687 377.837 436.307C363.534 420.431 349.32 404.475 335.068 388.553C323.665 375.816 312.226 363.112 300.869 350.335C289.181 337.186 277.573 323.966 265.753 310.577C258.47 317.917 251.461 324.789 244.699 331.896C242.264 334.455 240.748 334.341 238.288 331.876C178.252 271.719 118.019 211.758 58.1322 151.453C42.3701 135.58 32.795 116.151 30.0435 93.7291C29.087 85.9342 27.9792 78.0587 28.1481 70.2462C28.4644 55.6145 30.4591 41.1183 34.9981 27.1137C37.8578 18.2903 40.9866 9.55405 43.9973 0.389341C50.6877 0 57.3753 0 64.5315 0Z" />
<path d="M512 106.75C510.765 108.065 509.457 109.057 508.307 110.206C474.006 144.483 439.699 178.755 405.443 213.079C393.586 224.96 379.401 231.863 362.765 234.07C356.723 234.872 350.8 236.549 344.782 237.588C343.61 237.791 341.866 237.271 341.028 236.438C319.165 214.71 297.368 192.916 275.655 171.039C274.667 170.043 273.915 168.061 274.148 166.73C275.59 158.491 277.32 150.302 279.004 142.106C281.421 130.344 286.252 119.558 294.632 111.021C330.885 74.0814 367.424 37.4232 403.93 0.331352C404.444 -1.81496e-05 404.889 -1.81794e-05 405.737 0.331355C413.204 7.67125 420.268 14.6798 427.617 21.9717C400.438 49.1489 373.626 75.9594 346.845 102.739C353.711 109.447 360.353 115.937 367.107 122.535C393.578 96.04 420.538 69.056 446.782 42.7884C454.083 50.073 461.354 57.3261 469.175 65.1288C442.705 91.5947 415.892 118.404 389.591 144.7C396.206 151.321 402.861 157.981 410.007 165.132C436.493 138.644 463.303 111.832 491.559 83.5732C498.382 91.0592 505.191 98.5296 512 106C512 106 512 106.5 512 106.75Z" />
<path d="M0 456.469C2.3303 451.364 4.47779 446.622 7.0602 442.131C8.58262 439.483 10.5659 437.003 12.7299 434.835C60.0494 387.428 107.424 340.076 154.776 292.702C155.362 292.115 155.791 291.372 155.937 291.176C177.57 312.831 198.926 334.208 221.223 356.529C220.79 356.782 219.261 357.306 218.233 358.332C171.654 404.831 125.135 451.389 78.5651 497.897C71.2815 505.171 62.6775 510.037 52.132 511.618C47.9755 512 43.9509 512 39.3278 511.615C25.616 509.961 15.3642 503.64 8.10315 492.88C4.80369 487.99 2.66514 482.317 1.01328e-06 477C1.01328e-06 470.312 1e-06 463.625 0 456.469Z"/>
</svg>
